<svg xmlns="http://www.w3.org/2000/svg" viewBox="0 0 145 38" width="146" height="38">
    <path fill="#f5000c" d="M11.531 5.927h5.847V0h-5.847zM0 5.927h5.847V0H0zm0 10.62h5.847V10.62H0z"></path>
    <path fill="#002a60" d="M11.5353912,29.6128 C11.5353912,27.2803 11.5635034,24.9478 11.5196088,22.6163 C11.5048129,21.8438 11.6542517,21.5018 12.5114286,21.5543 C13.7804252,21.6328 15.0607653,21.6343 16.3292687,21.5543 C17.1958163,21.4993 17.3255272,21.8578 17.3156633,22.6213 C17.2781803,25.5363 17.3329252,28.4523 17.2801531,31.3668 C17.2653571,32.2108 17.5287245,32.4393 18.3203061,32.3833 C20.0770748,32.2593 21.8461735,32.5363 23.6004762,32.1693 C27.617568,31.3303 29.9069898,28.0103 29.5760544,23.4513 C29.29,19.5158 26.3293367,16.5048 22.444915,16.3798 C19.2026361,16.2753 15.9544388,16.2998 12.7106803,16.3653 C11.6996259,16.3858 11.4530272,16.0538 11.5176361,15.1053 C11.5935884,13.9863 11.5501871,12.8573 11.5294728,11.7333 C11.5196088,11.2063 11.5861905,10.8748 12.2465816,10.8953 C16.1847619,11.0178 20.1323129,10.6733 24.0640816,11.1068 C30.4953741,11.8158 35.3878912,16.9988 35.7134014,23.4273 C36.0615986,30.2983 31.8289796,35.9678 25.3330782,37.3733 C22.5672279,37.9713 19.7703061,37.7063 16.9852211,37.7598 C15.4656803,37.7893 13.9441667,37.7318 12.4256122,37.7798 C11.7203401,37.8018 11.5097449,37.5683 11.5210884,36.8593 C11.5585714,34.4443 11.5353912,32.0283 11.5353912,29.6128" class="main"></path>
    <path fill="#002a60" d="M50.2104422,18.116 C49.0297279,21.0525 47.9387755,23.766 46.8098469,26.574 C48.9019898,26.574 50.8294048,26.5695 52.7568197,26.577 C53.2633333,26.579 53.6578912,26.625 53.3348469,25.856 C52.2942007,23.3775 51.3166837,20.8715 50.2104422,18.116 M61.0770578,37.766 C58.0932143,37.766 58.0932143,37.766 56.9657653,34.931 C55.7362245,31.839 55.7362245,31.839 52.4155272,31.839 C50.1971259,31.839 47.9762585,31.891 45.7603231,31.8125 C44.8972279,31.7825 44.5436054,32.0995 44.2723469,32.8685 C43.7904932,34.236 43.1715306,35.5525 42.6743878,36.9145 C42.4396259,37.5585 42.1141156,37.815 41.4172279,37.783 C40.1053231,37.723 38.785034,37.71 37.4746088,37.784 C36.4753912,37.8405 36.4009184,37.544 36.7673639,36.6855 C39.040017,31.353 41.2746939,26.004 43.5182483,20.6585 C44.7369388,17.7555 45.9669728,14.8575 47.1481803,11.939 C47.4465646,11.202 47.7770068,10.795 48.6583503,10.884 C50.0777721,11.0275 51.8177721,10.3595 52.8520068,11.131 C53.8245918,11.8565 54.0859864,13.578 54.6309694,14.8745 C57.6809014,22.1265 60.7115986,29.3865 63.7782993,36.6315 C64.1486905,37.507 64.1521429,37.9125 63.047381,37.7805 C62.3993197,37.7025 61.7344898,37.766 61.0770578,37.766" class="comp"></path>
    <path fill="#002a60" d="M67.4150374,24.3389 C67.4150374,20.2569 67.4377245,16.1744 67.3972823,12.0929 C67.3884048,11.2139 67.5393231,10.8064 68.5276905,10.8804 C69.7942211,10.9749 71.0760408,10.9554 72.3460238,10.8844 C73.1292211,10.8404 73.3082517,11.1099 73.2974014,11.8624 C73.2569592,14.6944 73.3117041,17.5279 73.2623844,20.3594 C73.2480816,21.2104 73.4576905,21.5119 74.3419932,21.4949 C77.1759048,21.4414 80.0122823,21.4414 82.8461939,21.4959 C83.6787109,21.5119 83.8621803,21.2389 83.8493571,20.4464 C83.8044762,17.6564 83.8671122,14.8644 83.8118741,12.0749 C83.794119,11.1864 83.9479966,10.7974 84.9329116,10.8799 C86.1160918,10.9789 87.3185068,10.9689 88.5041531,10.8824 C89.4377755,10.8144 89.6809218,11.1214 89.6730306,12.0564 C89.6296293,17.2629 89.6523163,22.4699 89.6523163,27.6764 C89.6523163,30.6754 89.6202585,33.6754 89.671551,36.6734 C89.6868401,37.5589 89.4180476,37.8354 88.558898,37.7859 C87.3712789,37.7179 86.1737959,37.7139 84.9866701,37.7869 C84.1033537,37.8409 83.7803095,37.6314 83.8054626,36.6444 C83.8804286,33.7724 83.8000374,30.8964 83.8523163,28.0234 C83.8676054,27.1859 83.6131156,26.9874 82.8220272,27.0009 C80.029051,27.0479 77.234102,27.0509 74.4411259,27.0004 C73.5597823,26.9844 73.2318061,27.1814 73.256466,28.1594 C73.3265,30.9899 73.251534,33.8239 73.2998673,36.6554 C73.3141701,37.4904 73.1519082,37.8489 72.2394932,37.7894 C70.9709898,37.7069 69.6906497,37.7189 68.4206667,37.7864 C67.5782857,37.8309 67.3918571,37.5099 67.3987619,36.7099 C67.4342721,32.5864 67.4150374,28.4624 67.4150374,24.3389" class="comp"></path>
    <path fill="#002a60" d="M96.1630136,24.29395 C96.1630136,20.17145 96.1842211,16.04895 96.1447653,11.92645 C96.1368741,11.11545 96.3454966,10.88045 97.1612449,10.88545 C103.07616,10.92095 108.991568,10.91745 114.90599,10.88895 C115.673898,10.88545 116.022588,11.03745 115.959459,11.90445 C115.883507,12.93995 115.862299,13.99295 115.962912,15.02395 C116.070922,16.13145 115.616194,16.30445 114.642129,16.28995 C110.823303,16.23445 107.00201,16.30095 103.18269,16.24395 C102.215037,16.22945 101.888541,16.48895 101.960548,17.48295 C102.056228,18.80845 101.503354,20.60645 102.163252,21.35345 C102.916364,22.20645 104.716041,21.58495 106.059017,21.60795 C108.482095,21.64945 110.907146,21.66345 113.328745,21.59595 C114.198252,21.57195 114.36002,21.90045 114.323031,22.66745 C114.271738,23.74745 114.263847,24.83495 114.32599,25.91395 C114.370378,26.68345 114.130684,26.90245 113.365735,26.89245 C109.998184,26.85045 106.628167,26.93545 103.262588,26.84095 C102.114425,26.80845 101.875718,27.18845 101.961534,28.22845 C102.046857,29.26295 102.044391,30.31445 101.961534,31.34845 C101.887061,32.27095 102.246602,32.43195 103.072707,32.42345 C107.09769,32.38195 111.123167,32.42895 115.14815,32.38495 C115.972776,32.37545 116.202605,32.62445 116.159204,33.43195 C116.094102,34.63645 116.121721,35.84645 116.151313,37.05395 C116.165122,37.59345 115.981653,37.77595 115.448014,37.77495 C109.245565,37.76195 103.043116,37.75595 96.8406667,37.77845 C96.0249184,37.78145 96.164,37.26895 96.164,36.78695 C96.1625204,32.62245 96.1630136,28.45845 96.1630136,24.29395" class="comp"></path>
    <path fill="#002a60" d="M127.936213,20.09205 C127.915005,20.09205 127.894291,20.09205 127.873083,20.09205 C127.873083,21.13005 127.881961,22.16805 127.869138,23.20605 C127.864206,23.62605 127.913526,23.91905 128.448151,23.91055 C130.535855,23.87805 132.631451,23.97955 134.709291,23.82905 C136.687012,23.68605 137.969818,22.22555 138.077335,20.34105 C138.189784,18.35805 137.065294,16.91855 135.008168,16.47055 C133.877267,16.22455 132.721213,16.32505 131.578968,16.35155 C130.364716,16.37955 128.738645,15.81055 128.057539,16.60055 C127.471621,17.28105 127.936213,18.89255 127.936213,20.09205 M144.799614,37.76505 C142.52992,37.76505 140.525566,37.74755 138.521706,37.77655 C137.959954,37.78455 137.745413,37.44305 137.489444,37.05055 C135.974342,34.72605 134.424716,32.42405 132.934274,30.08305 C132.517029,29.42805 132.092879,29.05605 131.26924,29.15155 C130.498372,29.23955 129.704325,29.23105 128.931485,29.15455 C128.023509,29.06455 127.836587,29.45755 127.855821,30.29305 C127.905634,32.45755 127.843491,34.62455 127.887386,36.78955 C127.903662,37.55605 127.669393,37.81305 126.909869,37.78105 C125.597471,37.72655 124.280634,37.73805 122.96725,37.77855 C122.309818,37.79855 122.038066,37.64855 122.040039,36.89705 C122.066179,28.52605 122.056808,20.15455 122.055328,11.78255 C122.054835,11.31955 121.979869,10.87705 122.704869,10.89555 C127.096298,11.00555 131.501043,10.63355 135.879155,11.08855 C140.436791,11.56155 143.107454,13.97105 143.801383,17.95805 C144.600362,22.54955 142.958015,25.88655 138.847709,28.02655 C138.739206,28.08255 138.638594,28.15455 138.458083,28.26605 C140.528526,31.36755 142.592063,34.45855 144.799614,37.76505" class="comp"></path>
</svg>