<?xml version="1.0" standalone="no"?>
<!DOCTYPE svg PUBLIC "-//W3C//DTD SVG 20010904//EN"
 "http://www.w3.org/TR/2001/REC-SVG-20010904/DTD/svg10.dtd">
<svg version="1.0" xmlns="http://www.w3.org/2000/svg"
 width="405.000000pt" height="75.000000pt" viewBox="0 0 405.000000 75.000000"
 preserveAspectRatio="xMidYMid meet">

<g transform="translate(0.000000,75.000000) scale(0.100000,-0.100000)"
fill="#000000" stroke="none">
<path d="M1826 530 c-67 -20 -100 -78 -100 -175 0 -117 42 -165 144 -165 102
0 149 57 150 178 0 84 -20 125 -74 152 -45 21 -73 24 -120 10z m109 -52 c45
-40 54 -139 19 -210 -17 -32 -67 -51 -109 -40 -88 24 -104 200 -23 256 32 23
82 20 113 -6z"/>
<path d="M2184 530 c-112 -35 -148 -220 -58 -299 42 -37 69 -45 139 -39 79 7
86 16 83 107 l-3 76 -62 3 c-58 3 -63 1 -63 -18 0 -17 6 -20 41 -20 l40 0 -3
-52 c-3 -47 -6 -52 -31 -59 -64 -17 -130 28 -143 97 -22 118 78 209 177 160
40 -20 49 -20 49 -1 0 36 -103 64 -166 45z"/>
<path d="M2464 526 c-36 -16 -58 -61 -48 -100 7 -29 42 -61 91 -81 44 -18 68
-57 53 -85 -21 -39 -62 -44 -132 -15 -14 5 -18 2 -18 -14 0 -28 29 -41 90 -41
44 0 56 5 81 29 53 54 35 123 -44 162 -58 29 -77 48 -77 75 0 40 54 54 113 29
13 -5 17 -2 17 13 0 13 -10 24 -31 31 -40 14 -57 13 -95 -3z"/>
<path d="M1414 517 c-2 -7 -3 -82 -2 -167 l3 -155 75 1 c92 0 132 19 160 74
46 90 17 203 -60 242 -43 22 -168 25 -176 5z m171 -49 c28 -25 50 -96 40 -132
-23 -81 -53 -106 -125 -106 l-40 0 0 130 0 130 49 0 c37 0 57 -6 76 -22z"/>
</g>
</svg>
